M48
INCH
T01C0.0450
T02C0.0300
T03C0.0400
%
T01
X-007000Y+040250
X-006000Y+039250
X-008000Y+039250
X-006000Y+041250
X-008000Y+041250
X+000750Y+041187
X+000750Y+037250
X-003000Y+041250
X-003000Y+039250
X-001750Y+041250
X-001750Y+039750
X+003250Y+037000
X+003250Y+039000
X+003250Y+041750
X+003250Y+040250
X+005000Y+039750
X+008937Y+039750
X+006940Y+036840
X+008940Y+036840
X+010750Y+041250
X+010750Y+039750
X+013250Y+040687
X+013250Y+036750
X+016000Y+041500
X+016000Y+039500
X+016000Y+036750
X+016000Y+038250
X+011750Y+034250
X+011750Y+032250
X+009750Y+034250
X+009750Y+032250
X+007750Y+034250
X+007750Y+032250
X+005750Y+034250
X+005750Y+032250
X-006750Y+031750
X-000750Y+031750
X-000750Y+034750
X-006750Y+034750
X+002750Y+035750
X+002750Y+031750
X+004000Y+035750
X+004000Y+031750
X+001500Y+031750
X+001500Y+035750
X+016000Y+032750
X+015000Y+033750
X+017000Y+033750
X+015000Y+031750
X+017000Y+031750
X-001250Y+037000
X-003250Y+037000
X-004250Y+041250
X-004250Y+039250
X+013500Y+034250
X+013500Y+032250
T02
X-005250Y+036750
X-005250Y+037750
T03
X-007750Y+037750
X-007750Y+036750
M30
